<svg xmlns="http://www.w3.org/2000/svg" viewBox="0 0 500 700" width="500" height="700"><rect x="0" y="0" width="500" height="700" fill="#F1E6D3"/><path d="M82.6 96.8L64.6 96.8L64.6 50.4L38.1 50.4L38.1 35.8L109.1 35.8L109.1 50.4L82.6 50.4L82.6 96.8ZM181.1 96.8L117.0 96.8L117.0 35.8L180.4 35.8L180.4 49.2L135.0 49.2L135.0 59.5L174.8 59.5L174.8 72.4L135.0 72.4L135.0 83.4L181.1 83.4L181.1 96.8ZM208.7 96.8L191.7 96.8L191.7 35.8L207.8 35.8L239.4 64.3Q240.2 65.0 241.5 66.2Q242.8 67.5 244.1 68.8Q245.5 70.1 246.5 71.3L246.5 71.3L247.3 71.3Q247.3 69.7 247.3 67.3Q247.2 64.9 247.2 63.0L247.2 63.0L247.2 35.8L264.2 35.8L264.2 96.8L248.4 96.8L217.5 69.0Q215.4 67.1 213.1 64.8Q210.8 62.5 209.3 61.2L209.3 61.2L208.6 61.2Q208.6 62.3 208.7 64.9Q208.7 67.5 208.7 70.4L208.7 70.4L208.7 96.8ZM294.6 96.8L277.5 96.8L277.5 35.8L293.7 35.8L325.2 64.3Q326.0 65.0 327.3 66.2Q328.6 67.5 330.0 68.8Q331.4 70.1 332.3 71.3L332.3 71.3L333.1 71.3Q333.1 69.7 333.1 67.3Q333.0 64.9 333.0 63.0L333.0 63.0L333.0 35.8L350.1 35.8L350.1 96.8L334.2 96.8L303.3 69.0Q301.2 67.1 298.9 64.8Q296.6 62.5 295.2 61.2L295.2 61.2L294.5 61.2Q294.5 62.3 294.5 64.9Q294.6 67.5 294.6 70.4L294.6 70.4L294.6 96.8ZM381.4 96.8L363.4 96.8L363.4 35.8L381.4 35.8L381.4 96.8ZM427.2 97.9L427.2 97.9Q419.8 97.9 413.3 97.0Q406.8 96.1 401.9 93.9Q397.1 91.7 394.3 87.7Q391.6 83.7 391.6 77.6L391.6 77.6Q391.6 77.4 391.6 77.1Q391.6 76.9 391.6 76.6L391.6 76.6L409.4 76.6Q409.3 77.0 409.2 77.3Q409.2 77.7 409.2 78.1L409.2 78.1Q409.2 80.9 411.3 82.4Q413.4 84.0 417.1 84.6Q420.8 85.2 425.9 85.2L425.9 85.2Q427.9 85.2 430.1 85.1Q432.3 84.9 434.3 84.6Q436.3 84.3 438.0 83.7Q439.6 83.1 440.5 82.2Q441.5 81.2 441.5 79.8L441.5 79.8Q441.5 77.9 439.5 76.8Q437.5 75.7 434.0 75.1Q430.5 74.4 426.2 73.9Q421.9 73.3 417.3 72.6Q412.7 71.8 408.3 70.5Q404.0 69.3 400.5 67.1Q397.1 65.0 395.0 61.6Q393.0 58.3 393.0 53.5L393.0 53.5Q393.0 48.6 395.4 45.1Q397.9 41.6 402.3 39.3Q406.7 37.0 412.7 35.9Q418.8 34.8 425.9 34.8L425.9 34.8Q433.1 34.8 439.0 35.9Q444.9 37.1 449.1 39.3Q453.4 41.6 455.6 45.0Q457.9 48.4 457.9 53.0L457.9 53.0L457.9 54.3L440.4 54.3L440.4 53.6Q440.4 51.7 438.8 50.2Q437.2 48.8 434.2 47.9Q431.1 47.1 426.8 47.1L426.8 47.1Q421.5 47.1 418.2 47.7Q414.8 48.4 413.2 49.5Q411.6 50.6 411.6 52.0L411.6 52.0Q411.6 53.8 413.6 54.8Q415.7 55.9 419.1 56.5Q422.6 57.1 426.9 57.6Q431.2 58.2 435.8 58.9Q440.5 59.6 444.8 60.8Q449.1 62.1 452.6 64.2Q456.0 66.2 458.1 69.5Q460.1 72.7 460.1 77.4L460.1 77.4Q460.1 84.8 455.8 89.3Q451.6 93.8 444.2 95.9Q436.8 97.9 427.2 97.9Z" fill="#2F5B4E"/><path d="M38.5 122.8L36.9 122.8L36.9 114.6L38.5 114.6L38.5 118.4L42.1 114.6L44.0 114.6L40.8 117.9L44.1 122.8L42.2 122.8L39.8 119.0L38.5 120.2L38.5 122.8ZM54.3 122.8L48.6 122.8L48.6 114.6L50.2 114.6L50.2 121.5L54.3 121.5L54.3 122.8ZM61.8 123.0L61.8 123.0Q60.7 123.0 60.0 122.6Q59.2 122.3 58.8 121.6Q58.3 120.8 58.3 119.8L58.3 119.8L58.3 114.6L59.9 114.6L59.9 119.7Q59.9 120.7 60.4 121.2Q60.9 121.7 61.8 121.7L61.8 121.7Q62.7 121.7 63.2 121.2Q63.7 120.7 63.7 119.7L63.7 119.7L63.7 114.6L65.3 114.6L65.3 119.8Q65.3 120.8 64.9 121.6Q64.5 122.3 63.7 122.6Q62.9 123.0 61.8 123.0ZM74.9 122.8L70.4 122.8L70.4 114.6L74.9 114.6Q75.6 114.6 76.1 114.8Q76.6 115.1 76.9 115.6Q77.2 116.0 77.2 116.6L77.2 116.6Q77.2 117.1 77.1 117.5Q76.9 117.9 76.6 118.1Q76.3 118.4 75.9 118.5L75.9 118.5L75.9 118.6Q76.3 118.7 76.7 118.9Q77.1 119.2 77.3 119.6Q77.5 120.0 77.5 120.6L77.5 120.6Q77.5 121.3 77.1 121.8Q76.8 122.3 76.2 122.6Q75.6 122.8 74.9 122.8L74.9 122.8ZM72.0 119.3L72.0 121.5L74.7 121.5Q75.2 121.5 75.5 121.2Q75.9 121.0 75.9 120.4L75.9 120.4Q75.9 120.0 75.7 119.8Q75.6 119.5 75.3 119.4Q75.0 119.3 74.6 119.3L74.6 119.3L72.0 119.3ZM72.0 115.9L72.0 118.0L74.5 118.0Q74.9 118.0 75.1 117.8Q75.4 117.7 75.5 117.5Q75.6 117.2 75.6 117.0L75.6 117.0Q75.6 116.4 75.3 116.2Q75.1 115.9 74.6 115.9L74.6 115.9L72.0 115.9ZM86.8 122.8L82.3 122.8L82.3 114.6L86.8 114.6Q87.4 114.6 87.9 114.8Q88.5 115.1 88.8 115.6Q89.1 116.0 89.1 116.6L89.1 116.6Q89.1 117.1 88.9 117.5Q88.7 117.9 88.4 118.1Q88.1 118.4 87.7 118.5L87.7 118.5L87.7 118.6Q88.2 118.7 88.5 118.9Q88.9 119.2 89.1 119.6Q89.3 120.0 89.3 120.6L89.3 120.6Q89.3 121.3 89.0 121.8Q88.6 122.3 88.0 122.6Q87.5 122.8 86.8 122.8L86.8 122.8ZM83.8 119.3L83.8 121.5L86.6 121.5Q87.0 121.5 87.4 121.2Q87.7 121.0 87.7 120.4L87.7 120.4Q87.7 120.0 87.6 119.8Q87.4 119.5 87.2 119.4Q86.9 119.3 86.5 119.3L86.5 119.3L83.8 119.3ZM83.8 115.9L83.8 118.0L86.4 118.0Q86.7 118.0 87.0 117.8Q87.2 117.7 87.3 117.5Q87.5 117.2 87.5 117.0L87.5 117.0Q87.5 116.4 87.2 116.2Q86.9 115.9 86.4 115.9L86.4 115.9L83.8 115.9ZM100.6 122.8L94.1 122.8L94.1 114.6L100.5 114.6L100.5 115.9L95.7 115.9L95.7 118.0L100.0 118.0L100.0 119.3L95.7 119.3L95.7 121.5L100.6 121.5L100.6 122.8ZM107.0 122.8L105.5 122.8L105.5 114.6L107.0 114.6L110.5 119.5Q110.6 119.5 110.7 119.7Q110.8 119.8 110.8 119.9Q110.9 120.0 110.9 120.1L110.9 120.1L111.0 120.1Q111.0 119.9 111.0 119.8Q111.0 119.6 111.0 119.5L111.0 119.5L111.0 114.6L112.5 114.6L112.5 122.8L111.0 122.8L107.5 117.9Q107.4 117.8 107.3 117.6Q107.1 117.4 107.1 117.3L107.1 117.3L107.0 117.3Q107.0 117.4 107.0 117.6Q107.0 117.8 107.0 117.9L107.0 117.9L107.0 122.8ZM125.3 119.3L123.8 119.3L123.8 117.8L125.3 117.8L125.3 119.3ZM140.3 123.0L140.3 123.0Q138.4 123.0 137.3 121.9Q136.3 120.9 136.3 118.7L136.3 118.7Q136.3 117.3 136.8 116.3Q137.3 115.4 138.2 114.9Q139.2 114.5 140.5 114.5L140.5 114.5Q141.3 114.5 142.0 114.6Q142.7 114.8 143.2 115.2Q143.7 115.5 144.0 116.1Q144.3 116.6 144.3 117.4L144.3 117.4L142.7 117.4Q142.7 117.0 142.5 116.7Q142.4 116.4 142.1 116.2Q141.8 116.0 141.4 115.9Q141.0 115.8 140.5 115.8L140.5 115.8Q139.9 115.8 139.4 115.9Q138.9 116.1 138.5 116.5Q138.2 116.8 138.0 117.4Q137.9 117.9 137.9 118.6L137.9 118.6L137.9 118.8Q137.9 119.8 138.2 120.4Q138.4 121.1 139.0 121.4Q139.5 121.7 140.4 121.7L140.4 121.7Q141.1 121.7 141.6 121.4Q142.2 121.2 142.5 120.8Q142.8 120.4 142.8 119.8L142.8 119.8L142.8 119.7L140.1 119.7L140.1 118.4L144.3 118.4L144.3 122.8L143.2 122.8L143.1 121.9Q142.7 122.3 142.3 122.5Q141.9 122.7 141.4 122.9Q140.9 123.0 140.3 123.0ZM151.0 122.8L149.4 122.8L149.4 114.6L153.8 114.6Q154.7 114.6 155.3 114.9Q155.9 115.2 156.2 115.8Q156.5 116.4 156.5 117.2L156.5 117.2Q156.5 118.0 156.1 118.6Q155.8 119.2 155.1 119.5L155.1 119.5L156.8 122.8L155.1 122.8L153.6 119.8L151.0 119.8L151.0 122.8ZM151.0 115.9L151.0 118.5L153.6 118.5Q154.2 118.5 154.6 118.1Q154.9 117.8 154.9 117.2L154.9 117.2Q154.9 116.8 154.8 116.5Q154.6 116.2 154.3 116.1Q154.1 115.9 153.6 115.9L153.6 115.9L151.0 115.9ZM164.7 123.0L164.7 123.0Q163.6 123.0 162.8 122.6Q162.1 122.3 161.6 121.6Q161.2 120.8 161.2 119.8L161.2 119.8L161.2 114.6L162.8 114.6L162.8 119.7Q162.8 120.7 163.3 121.2Q163.8 121.7 164.7 121.7L164.7 121.7Q165.6 121.7 166.1 121.2Q166.6 120.7 166.6 119.7L166.6 119.7L166.6 114.6L168.2 114.6L168.2 119.8Q168.2 120.8 167.8 121.6Q167.4 122.3 166.6 122.6Q165.8 123.0 164.7 123.0ZM174.8 122.8L173.3 122.8L173.3 114.6L174.8 114.6L178.3 119.5Q178.4 119.5 178.5 119.7Q178.6 119.8 178.6 119.9Q178.7 120.0 178.7 120.1L178.7 120.1L178.8 120.1Q178.8 119.9 178.8 119.8Q178.8 119.6 178.8 119.5L178.8 119.5L178.8 114.6L180.3 114.6L180.3 122.8L178.8 122.8L175.3 117.9Q175.2 117.8 175.1 117.6Q174.9 117.4 174.9 117.3L174.9 117.3L174.8 117.3Q174.8 117.4 174.8 117.6Q174.8 117.8 174.8 117.9L174.8 117.9L174.8 122.8ZM188.8 122.8L185.5 122.8L185.5 114.6L188.8 114.6Q190.0 114.6 190.9 115.0Q191.8 115.5 192.3 116.4Q192.8 117.3 192.8 118.7L192.8 118.7Q192.8 120.1 192.3 121.0Q191.8 121.9 190.9 122.4Q190.0 122.8 188.8 122.8L188.8 122.8ZM187.0 115.9L187.0 121.5L188.8 121.5Q189.3 121.5 189.8 121.3Q190.2 121.2 190.5 120.8Q190.8 120.5 191.0 120.0Q191.1 119.5 191.1 118.8L191.1 118.8L191.1 118.6Q191.1 117.9 191.0 117.4Q190.8 116.9 190.5 116.6Q190.2 116.3 189.8 116.1Q189.3 115.9 188.8 115.9L188.8 115.9L187.0 115.9ZM198.1 122.8L196.5 122.8L199.7 114.6L201.7 114.6L204.9 122.8L203.2 122.8L202.6 121.1L198.8 121.1L198.1 122.8ZM200.1 117.5L199.3 119.8L202.1 119.8L201.2 117.5Q201.2 117.4 201.1 117.2Q201.1 117.0 201.0 116.8Q200.9 116.6 200.8 116.4Q200.8 116.1 200.7 116.0L200.7 116.0L200.7 116.0Q200.6 116.2 200.5 116.5Q200.4 116.8 200.3 117.1Q200.2 117.4 200.1 117.5L200.1 117.5ZM212.6 122.8L209.3 122.8L209.3 114.6L212.6 114.6Q213.8 114.6 214.7 115.0Q215.6 115.5 216.1 116.4Q216.5 117.3 216.5 118.7L216.5 118.7Q216.5 120.1 216.1 121.0Q215.6 121.9 214.7 122.4Q213.8 122.8 212.6 122.8L212.6 122.8ZM210.8 115.9L210.8 121.5L212.6 121.5Q213.1 121.5 213.6 121.3Q214.0 121.2 214.3 120.8Q214.6 120.5 214.8 120.0Q214.9 119.5 214.9 118.8L214.9 118.8L214.9 118.6Q214.9 117.9 214.8 117.4Q214.6 116.9 214.3 116.6Q214.0 116.3 213.6 116.1Q213.1 115.9 212.6 115.9L212.6 115.9L210.8 115.9ZM232.7 122.8L227.4 122.8L227.4 121.6L229.4 121.6L229.4 116.4L227.4 116.4L227.4 115.5Q227.7 115.5 228.2 115.4Q228.7 115.2 229.2 115.0Q229.7 114.8 230.1 114.6L230.1 114.6L230.8 114.6L230.8 121.6L232.7 121.6L232.7 122.8ZM239.8 123.0L239.8 123.0Q238.9 123.0 238.3 122.6Q237.8 122.3 237.5 121.7Q237.3 121.1 237.3 120.4L237.3 120.4L238.7 120.4Q238.7 120.8 238.9 121.1Q239.0 121.4 239.2 121.6Q239.5 121.8 239.9 121.8L239.9 121.8Q240.5 121.8 240.8 121.5Q241.0 121.1 241.1 120.5Q241.2 119.9 241.3 119.1L241.3 119.1Q241.2 119.2 241.0 119.4Q240.7 119.6 240.4 119.7Q240.0 119.9 239.5 119.9L239.5 119.9Q238.6 119.9 238.1 119.5Q237.5 119.2 237.2 118.5Q237.0 117.9 237.0 117.2L237.0 117.2Q237.0 116.3 237.3 115.7Q237.7 115.1 238.3 114.8Q238.9 114.5 239.7 114.5L239.7 114.5Q240.4 114.5 241.0 114.7Q241.6 114.9 242.0 115.3Q242.4 115.8 242.6 116.6Q242.8 117.3 242.8 118.5L242.8 118.5Q242.8 119.7 242.6 120.6Q242.4 121.5 242.0 122.0Q241.6 122.5 241.1 122.7Q240.5 123.0 239.8 123.0ZM239.8 118.7L239.8 118.7Q240.3 118.7 240.6 118.5Q240.9 118.3 241.0 118.0Q241.2 117.6 241.2 117.2L241.2 117.2Q241.2 116.7 241.0 116.4Q240.9 116.0 240.6 115.8Q240.3 115.7 239.8 115.7L239.8 115.7Q239.4 115.7 239.1 115.9Q238.8 116.1 238.6 116.4Q238.5 116.7 238.5 117.2L238.5 117.2Q238.5 117.6 238.6 118.0Q238.8 118.3 239.1 118.5Q239.4 118.7 239.8 118.7ZM250.1 122.8L248.5 122.8Q248.5 121.8 248.7 120.9Q249.0 119.9 249.4 119.0Q249.8 118.1 250.3 117.3Q250.9 116.6 251.4 115.9L251.4 115.9L247.3 115.9L247.3 114.6L253.2 114.6L253.2 115.6Q252.8 116.0 252.3 116.6Q251.9 117.2 251.5 117.9Q251.1 118.5 250.8 119.3Q250.5 120.0 250.3 120.7Q250.1 121.5 250.1 122.2L250.1 122.2L250.1 122.8ZM262.5 122.8L261.0 122.8L261.0 121.0L257.4 121.0L257.4 119.8Q257.9 119.0 258.3 118.2Q258.7 117.3 259.0 116.4Q259.3 115.5 259.6 114.5L259.6 114.5L261.1 114.5Q261.0 115.1 260.7 115.8Q260.5 116.4 260.2 117.1Q259.9 117.7 259.6 118.2Q259.3 118.8 259.1 119.2Q258.8 119.6 258.7 119.8L258.7 119.8L261.0 119.8L261.0 117.7Q261.1 117.5 261.2 117.2Q261.3 117.0 261.4 116.7Q261.5 116.4 261.6 116.2Q261.7 115.9 261.8 115.7L261.8 115.7L262.5 115.7L262.5 119.8L263.5 119.8L263.5 121.0L262.5 121.0L262.5 122.8Z" fill="#2F5B4E"/><polygon points="36,612 464,612 335,300 165,300" fill="#2F5B4E"/><polygon points="76.7,593.3 423.3,593.3 327.9,318.7 172.1,318.7" fill="#C8653D"/><line x1="76.7" y1="593.3" x2="423.3" y2="593.3" stroke="#FBF6EC" stroke-width="2.2"/><line x1="172.1" y1="318.7" x2="327.9" y2="318.7" stroke="#FBF6EC" stroke-width="2.2"/><line x1="76.7" y1="593.3" x2="172.1" y2="318.7" stroke="#FBF6EC" stroke-width="2.2"/><line x1="423.3" y1="593.3" x2="327.9" y2="318.7" stroke="#FBF6EC" stroke-width="2.2"/><line x1="120.1" y1="593.3" x2="191.6" y2="318.7" stroke="#FBF6EC" stroke-width="2.2"/><line x1="379.9" y1="593.3" x2="308.4" y2="318.7" stroke="#FBF6EC" stroke-width="2.2"/><line x1="137.9" y1="524.6" x2="362.1" y2="524.6" stroke="#FBF6EC" stroke-width="2.2"/><line x1="173.7" y1="387.4" x2="326.3" y2="387.4" stroke="#FBF6EC" stroke-width="2.2"/><line x1="250" y1="524.6" x2="250" y2="387.4" stroke="#FBF6EC" stroke-width="2.2"/><rect x="112.5" y="430" width="275.1" height="26" fill="#1D2A26" opacity=".35"/><rect x="112.5" y="428" width="275.1" height="3" fill="#FBF6EC"/><rect x="110.5" y="426" width="3" height="30" fill="#1D2A26"/><rect x="386.5" y="426" width="3" height="30" fill="#1D2A26"/><circle cx="376" cy="226" r="24" fill="#D9E24C"/><path d="M356 214Q376 226 360 244M396 208Q378 226 394 240" stroke="#FBF6EC" stroke-width="2.4" fill="none"/><path d="M300 236L338 230M296 250L336 244M304 264L340 256" stroke="#2F5B4E" stroke-width="2" stroke-linecap="round"/><path d="M39.7 660L38.4 660L38.4 654.3L36.3 654.3L36.3 653.1L41.9 653.1L41.9 654.3L39.7 654.3L39.7 660ZM50.2 660L44.8 660L44.8 653.1L50.1 653.1L50.1 654.3L46.1 654.3L46.1 655.9L49.7 655.9L49.7 657.0L46.1 657.0L46.1 658.9L50.2 658.9L50.2 660ZM54.5 660L53.3 660L53.3 653.1L54.5 653.1L57.4 657.2Q57.5 657.3 57.6 657.4Q57.6 657.5 57.7 657.6Q57.8 657.7 57.8 657.7L57.8 657.7L57.8 657.7Q57.8 657.6 57.8 657.5Q57.8 657.3 57.8 657.2L57.8 657.2L57.8 653.1L59.1 653.1L59.1 660L57.8 660L54.9 655.9Q54.8 655.8 54.7 655.6Q54.6 655.5 54.6 655.4L54.6 655.4L54.5 655.4Q54.5 655.5 54.5 655.6Q54.5 655.8 54.5 655.9L54.5 655.9L54.5 660ZM63.6 660L62.4 660L62.4 653.1L63.6 653.1L66.6 657.2Q66.6 657.3 66.7 657.4Q66.8 657.5 66.8 657.6Q66.9 657.7 66.9 657.7L66.9 657.7L66.9 657.7Q66.9 657.6 66.9 657.5Q66.9 657.3 66.9 657.2L66.9 657.2L66.9 653.1L68.2 653.1L68.2 660L67.0 660L64.0 655.9Q63.9 655.8 63.8 655.6Q63.7 655.5 63.7 655.4L63.7 655.4L63.6 655.4Q63.6 655.5 63.6 655.6Q63.6 655.8 63.6 655.9L63.6 655.9L63.6 660ZM72.8 660L71.5 660L71.5 653.1L72.8 653.1L72.8 660ZM78.7 660.1L78.7 660.1Q78.1 660.1 77.6 660.0Q77.1 659.9 76.7 659.6Q76.3 659.3 76.1 658.9Q75.8 658.5 75.8 658.0L75.8 658.0Q75.8 658.0 75.8 657.9Q75.8 657.8 75.8 657.8L75.8 657.8L77.1 657.8Q77.1 657.8 77.1 657.9Q77.1 657.9 77.1 658.0L77.1 658.0Q77.1 658.3 77.3 658.5Q77.5 658.8 77.9 658.9Q78.2 659.0 78.7 659.0L78.7 659.0Q79.1 659.0 79.3 659.0Q79.6 658.9 79.7 658.9Q79.9 658.8 80.1 658.7Q80.2 658.6 80.2 658.5Q80.3 658.3 80.3 658.2L80.3 658.2Q80.3 657.9 80.1 657.7Q79.9 657.5 79.6 657.4Q79.3 657.2 78.9 657.1Q78.5 657.0 78.1 656.9Q77.7 656.8 77.3 656.7Q77.0 656.5 76.7 656.3Q76.4 656.1 76.2 655.7Q76.0 655.4 76.0 654.9L76.0 654.9Q76.0 654.4 76.2 654.1Q76.4 653.7 76.8 653.5Q77.2 653.3 77.7 653.1Q78.2 653.0 78.7 653.0L78.7 653.0Q79.3 653.0 79.8 653.1Q80.3 653.3 80.6 653.5Q81 653.7 81.2 654.1Q81.4 654.5 81.4 655.0L81.4 655.0L81.4 655.1L80.1 655.1L80.1 655.0Q80.1 654.7 80.0 654.5Q79.8 654.3 79.5 654.2Q79.2 654.1 78.7 654.1L78.7 654.1Q78.3 654.1 78.0 654.2Q77.6 654.3 77.5 654.5Q77.3 654.6 77.3 654.9L77.3 654.9Q77.3 655.1 77.5 655.3Q77.7 655.5 78.0 655.6Q78.3 655.7 78.7 655.8Q79.0 655.9 79.4 656.0Q79.9 656.1 80.2 656.3Q80.6 656.4 80.9 656.6Q81.2 656.9 81.4 657.2Q81.6 657.5 81.6 658.0L81.6 658.0Q81.6 658.8 81.2 659.2Q80.8 659.7 80.2 659.9Q79.5 660.1 78.7 660.1ZM85.9 660L84.6 660L84.6 653.1L85.9 653.1L85.9 656.3L88.9 653.1L90.5 653.1L87.9 655.9L90.6 660L89.0 660L87.0 656.8L85.9 657.8L85.9 660ZM98.1 660L93.4 660L93.4 653.1L94.7 653.1L94.7 658.9L98.1 658.9L98.1 660ZM103.4 660.1L103.4 660.1Q102.5 660.1 101.8 659.8Q101.2 659.5 100.8 658.9Q100.5 658.4 100.5 657.5L100.5 657.5L100.5 653.1L101.8 653.1L101.8 657.4Q101.8 658.2 102.2 658.6Q102.6 659.0 103.4 659.0L103.4 659.0Q104.1 659.0 104.5 658.6Q105.0 658.2 105.0 657.4L105.0 657.4L105.0 653.1L106.3 653.1L106.3 657.5Q106.3 658.4 105.9 658.9Q105.6 659.5 104.9 659.8Q104.3 660.1 103.4 660.1ZM113.3 660L109.5 660L109.5 653.1L113.3 653.1Q113.8 653.1 114.3 653.4Q114.7 653.6 115.0 653.9Q115.2 654.3 115.2 654.8L115.2 654.8Q115.2 655.2 115.0 655.5Q114.9 655.9 114.6 656.1Q114.4 656.3 114.1 656.4L114.1 656.4L114.1 656.4Q114.5 656.5 114.8 656.7Q115.0 657.0 115.2 657.3Q115.4 657.7 115.4 658.1L115.4 658.1Q115.4 658.8 115.1 659.2Q114.8 659.6 114.3 659.8Q113.9 660 113.3 660L113.3 660ZM110.8 657.0L110.8 658.9L113.1 658.9Q113.5 658.9 113.8 658.7Q114.0 658.4 114.0 658.0L114.0 658.0Q114.0 657.7 113.9 657.5Q113.8 657.3 113.6 657.1Q113.4 657.0 113.0 657.0L113.0 657.0L110.8 657.0ZM110.8 654.3L110.8 655.9L112.9 655.9Q113.2 655.9 113.4 655.8Q113.7 655.7 113.8 655.5Q113.9 655.3 113.9 655.1L113.9 655.1Q113.9 654.7 113.6 654.5Q113.4 654.3 113.0 654.3L113.0 654.3L110.8 654.3ZM122.1 660L118.4 660L118.4 653.1L122.1 653.1Q122.7 653.1 123.1 653.4Q123.6 653.6 123.8 653.9Q124.1 654.3 124.1 654.8L124.1 654.8Q124.1 655.2 123.9 655.5Q123.8 655.9 123.5 656.1Q123.3 656.3 122.9 656.4L122.9 656.4L122.9 656.4Q123.3 656.5 123.6 656.7Q123.9 657.0 124.1 657.3Q124.3 657.7 124.3 658.1L124.3 658.1Q124.3 658.8 124.0 659.2Q123.7 659.6 123.2 659.8Q122.7 660 122.1 660L122.1 660ZM119.7 657.0L119.7 658.9L122.0 658.9Q122.4 658.9 122.6 658.7Q122.9 658.4 122.9 658.0L122.9 658.0Q122.9 657.7 122.8 657.5Q122.7 657.3 122.5 657.1Q122.2 657.0 121.9 657.0L121.9 657.0L119.7 657.0ZM119.7 654.3L119.7 655.9L121.8 655.9Q122.1 655.9 122.3 655.8Q122.5 655.7 122.6 655.5Q122.7 655.3 122.7 655.1L122.7 655.1Q122.7 654.7 122.5 654.5Q122.3 654.3 121.9 654.3L121.9 654.3L119.7 654.3ZM132.7 660L127.3 660L127.3 653.1L132.6 653.1L132.6 654.3L128.6 654.3L128.6 655.9L132.2 655.9L132.2 657.0L128.6 657.0L128.6 658.9L132.7 658.9L132.7 660ZM137.0 660L135.8 660L135.8 653.1L137.0 653.1L139.9 657.2Q140.0 657.3 140.1 657.4Q140.1 657.5 140.2 657.6Q140.3 657.7 140.3 657.7L140.3 657.7L140.3 657.7Q140.3 657.6 140.3 657.5Q140.3 657.3 140.3 657.2L140.3 657.2L140.3 653.1L141.6 653.1L141.6 660L140.3 660L137.4 655.9Q137.3 655.8 137.2 655.6Q137.1 655.5 137.1 655.4L137.1 655.4L137.0 655.4Q137.0 655.5 137.0 655.6Q137.0 655.8 137.0 655.9L137.0 655.9L137.0 660Z" fill="#2F5B4E"/><path d="M385.8 660.1L385.8 660.1Q384.7 660.1 383.9 659.7Q383.2 659.4 382.7 658.6Q382.3 657.8 382.3 656.6L382.3 656.6Q382.3 655.4 382.7 654.6Q383.2 653.8 383.9 653.4Q384.7 653.0 385.8 653.0L385.8 653.0Q386.9 653.0 387.6 653.4Q388.4 653.8 388.8 654.6Q389.3 655.4 389.3 656.6L389.3 656.6Q389.3 657.8 388.8 658.6Q388.4 659.4 387.6 659.7Q386.9 660.1 385.8 660.1ZM385.8 659.0L385.8 659.0Q386.3 659.0 386.7 658.9Q387.1 658.7 387.4 658.4Q387.6 658.1 387.8 657.7Q387.9 657.3 387.9 656.7L387.9 656.7L387.9 656.5Q387.9 655.9 387.8 655.5Q387.6 655.0 387.4 654.7Q387.1 654.4 386.7 654.3Q386.3 654.1 385.8 654.1L385.8 654.1Q385.3 654.1 384.9 654.3Q384.5 654.4 384.2 654.7Q383.9 655.0 383.8 655.5Q383.7 655.9 383.7 656.5L383.7 656.5L383.7 656.7Q383.7 657.3 383.8 657.7Q383.9 658.1 384.2 658.4Q384.5 658.7 384.9 658.9Q385.3 659.0 385.8 659.0ZM394.8 660.1L394.8 660.1Q394.3 660.1 393.7 660.0Q393.2 659.9 392.8 659.6Q392.4 659.3 392.2 658.9Q391.9 658.5 391.9 658.0L391.9 658.0Q391.9 658.0 392.0 657.9Q392.0 657.8 392.0 657.8L392.0 657.8L393.3 657.8Q393.3 657.8 393.3 657.9Q393.3 657.9 393.3 658.0L393.3 658.0Q393.3 658.3 393.4 658.5Q393.6 658.8 394 658.9Q394.4 659.0 394.9 659.0L394.9 659.0Q395.2 659.0 395.4 659.0Q395.7 658.9 395.9 658.9Q396.1 658.8 396.2 658.7Q396.3 658.6 396.4 658.5Q396.4 658.3 396.4 658.2L396.4 658.2Q396.4 657.9 396.2 657.7Q396.1 657.5 395.7 657.4Q395.4 657.2 395.1 657.1Q394.7 657.0 394.3 656.9Q393.9 656.8 393.5 656.7Q393.1 656.5 392.8 656.3Q392.5 656.1 392.3 655.7Q392.1 655.4 392.1 654.9L392.1 654.9Q392.1 654.4 392.3 654.1Q392.5 653.7 392.9 653.5Q393.3 653.3 393.8 653.1Q394.3 653.0 394.9 653.0L394.9 653.0Q395.4 653.0 395.9 653.1Q396.4 653.3 396.8 653.5Q397.1 653.7 397.3 654.1Q397.6 654.5 397.6 655.0L397.6 655.0L397.6 655.1L396.3 655.1L396.3 655.0Q396.3 654.7 396.1 654.5Q395.9 654.3 395.6 654.2Q395.3 654.1 394.9 654.1L394.9 654.1Q394.4 654.1 394.1 654.2Q393.8 654.3 393.6 654.5Q393.4 654.6 393.4 654.9L393.4 654.9Q393.4 655.1 393.6 655.3Q393.8 655.5 394.1 655.6Q394.4 655.7 394.8 655.8Q395.2 655.9 395.6 656.0Q396.0 656.1 396.4 656.3Q396.8 656.4 397.1 656.6Q397.4 656.9 397.5 657.2Q397.7 657.5 397.7 658.0L397.7 658.0Q397.7 658.8 397.3 659.2Q397.0 659.7 396.3 659.9Q395.7 660.1 394.8 660.1ZM402.0 660L400.7 660L400.7 653.1L402.0 653.1L402.0 656.3L405.1 653.1L406.7 653.1L404.0 655.9L406.7 660L405.2 660L403.1 656.8L402.0 657.8L402.0 660ZM409.6 660L408.3 660L410.9 653.1L412.6 653.1L415.3 660L413.8 660L413.3 658.5L410.2 658.5L409.6 660ZM411.3 655.6L410.6 657.4L412.9 657.4L412.2 655.6Q412.1 655.5 412.1 655.3Q412.0 655.2 412.0 655.0Q411.9 654.8 411.9 654.6Q411.8 654.4 411.7 654.3L411.7 654.3L411.7 654.3Q411.6 654.5 411.6 654.7Q411.5 655.0 411.4 655.2Q411.3 655.5 411.3 655.6L411.3 655.6ZM419.2 660L417.9 660L417.9 653.1L421.5 653.1Q422.2 653.1 422.7 653.4Q423.2 653.7 423.5 654.1Q423.7 654.6 423.7 655.3L423.7 655.3Q423.7 655.9 423.4 656.5Q423.1 657.0 422.6 657.2L422.6 657.2L424.0 660L422.6 660L421.3 657.5L419.2 657.5L419.2 660ZM419.2 654.3L419.2 656.4L421.4 656.4Q421.9 656.4 422.2 656.1Q422.4 655.8 422.4 655.3L422.4 655.3Q422.4 654.9 422.3 654.7Q422.2 654.5 421.9 654.4Q421.7 654.3 421.4 654.3L421.4 654.3L419.2 654.3ZM434.4 660L430.6 660L430.6 653.1L434.4 653.1Q434.9 653.1 435.4 653.4Q435.8 653.6 436.1 653.9Q436.3 654.3 436.3 654.8L436.3 654.8Q436.3 655.2 436.1 655.5Q436 655.9 435.7 656.1Q435.5 656.3 435.2 656.4L435.2 656.4L435.2 656.4Q435.6 656.5 435.9 656.7Q436.1 657.0 436.3 657.3Q436.5 657.7 436.5 658.1L436.5 658.1Q436.5 658.8 436.2 659.2Q435.9 659.6 435.4 659.8Q435.0 660 434.4 660L434.4 660ZM431.9 657.0L431.9 658.9L434.2 658.9Q434.6 658.9 434.9 658.7Q435.1 658.4 435.1 658.0L435.1 658.0Q435.1 657.7 435.0 657.5Q434.9 657.3 434.7 657.1Q434.5 657.0 434.1 657.0L434.1 657.0L431.9 657.0ZM431.9 654.3L431.9 655.9L434.0 655.9Q434.3 655.9 434.5 655.8Q434.8 655.7 434.9 655.5Q435.0 655.3 435.0 655.1L435.0 655.1Q435.0 654.7 434.7 654.5Q434.5 654.3 434.1 654.3L434.1 654.3L431.9 654.3ZM444.2 660L439.5 660L439.5 653.1L440.8 653.1L440.8 658.9L444.2 658.9L444.2 660ZM449.9 660.1L449.9 660.1Q448.8 660.1 448 659.7Q447.2 659.4 446.8 658.6Q446.4 657.8 446.4 656.6L446.4 656.6Q446.4 655.4 446.8 654.6Q447.2 653.8 448 653.4Q448.8 653.0 449.9 653.0L449.9 653.0Q450.9 653.0 451.7 653.4Q452.5 653.8 452.9 654.6Q453.3 655.4 453.3 656.6L453.3 656.6Q453.3 657.8 452.9 658.6Q452.5 659.4 451.7 659.7Q450.9 660.1 449.9 660.1ZM449.9 659.0L449.9 659.0Q450.4 659.0 450.8 658.9Q451.2 658.7 451.4 658.4Q451.7 658.1 451.8 657.7Q452.0 657.3 452.0 656.7L452.0 656.7L452.0 656.5Q452.0 655.9 451.8 655.5Q451.7 655.0 451.4 654.7Q451.2 654.4 450.8 654.3Q450.4 654.1 449.9 654.1L449.9 654.1Q449.3 654.1 448.9 654.3Q448.5 654.4 448.3 654.7Q448 655.0 447.9 655.5Q447.7 655.9 447.7 656.5L447.7 656.5L447.7 656.7Q447.7 657.3 447.9 657.7Q448 658.1 448.3 658.4Q448.5 658.7 448.9 658.9Q449.3 659.0 449.9 659.0ZM457.6 660L456.3 660L456.3 653.1L458.4 653.1L459.4 657.0Q459.5 657.2 459.6 657.4Q459.6 657.7 459.7 657.9Q459.7 658.1 459.8 658.3L459.8 658.3L459.9 658.3Q459.9 658.1 459.9 657.9Q459.9 657.7 460.0 657.4Q460.1 657.2 460.1 657.0L460.1 657.0L461.2 653.1L463.2 653.1L463.2 660L461.9 660L461.9 656.5Q461.9 656.1 461.9 655.6Q462.0 655.1 462.0 654.8Q462.0 654.5 462.0 654.4L462.0 654.4L461.9 654.4Q461.9 654.5 461.8 654.8Q461.7 655.1 461.6 655.5Q461.6 655.8 461.5 656.1L461.5 656.1L460.4 660L459.1 660L458.0 656.1Q458.0 655.9 457.9 655.6Q457.8 655.3 457.7 655.0Q457.7 654.7 457.6 654.4L457.6 654.4L457.5 654.4Q457.5 654.7 457.5 655.1Q457.6 655.5 457.6 655.8Q457.6 656.2 457.6 656.5L457.6 656.5L457.6 660Z" fill="#2F5B4E"/></svg>
